<svg width="154" height="39" viewBox="0 0 154 39" fill="none" xmlns="http://www.w3.org/2000/svg">
<g filter="url(#filter0_d)">
<path d="M49.5641 2.25019C50.2267 2.25019 50.8894 2.31043 51.5521 2.43092C52.2348 2.53132 52.8472 2.70201 53.3894 2.94297C53.9316 3.16386 54.3734 3.44499 54.7147 3.78636C55.0762 4.10765 55.2569 4.48919 55.2569 4.93096C55.2569 5.39282 55.1364 5.74423 54.8955 5.98519C54.6545 6.22616 54.3533 6.34665 53.9918 6.34665C53.6505 6.34665 53.3492 6.29644 53.0882 6.19604C52.8271 6.07556 52.5259 5.94503 52.1846 5.80447C51.8633 5.6639 51.4717 5.54342 51.0099 5.44302C50.548 5.32253 49.9356 5.26229 49.1725 5.26229C48.4094 5.26229 47.6765 5.4631 46.9737 5.86471C46.2909 6.24624 45.6885 6.78842 45.1664 7.49124C44.6644 8.17399 44.2628 8.98725 43.9616 9.93105C43.6604 10.8748 43.5098 11.899 43.5098 13.0034C43.5098 14.3689 43.6805 15.5436 44.0218 16.5275C44.3833 17.5115 44.8451 18.3248 45.4074 18.9673C45.9696 19.5898 46.6022 20.0617 47.305 20.383C48.0279 20.6842 48.7508 20.8348 49.4737 20.8348C50.3372 20.8348 51.0601 20.7445 51.6424 20.5638C52.2247 20.383 52.7167 20.1822 53.1183 19.9613C53.54 19.7405 53.9015 19.5396 54.2027 19.3589C54.5039 19.1782 54.795 19.0878 55.0762 19.0878C55.4175 19.0878 55.6886 19.1882 55.8894 19.389C56.0903 19.5698 56.1907 19.9011 56.1907 20.383C56.1907 20.7846 56.03 21.1963 55.7087 21.618C55.4075 22.0196 54.9557 22.3911 54.3533 22.7325C53.7709 23.0538 53.0681 23.3249 52.2448 23.5457C51.4215 23.7465 50.4978 23.8469 49.4737 23.8469C48.3492 23.8469 47.2247 23.6261 46.1002 23.1843C44.9957 22.7425 44.0017 22.0899 43.1182 21.2264C42.2547 20.3429 41.5519 19.2485 41.0097 17.9432C40.4675 16.6179 40.1965 15.0817 40.1965 13.3347C40.1965 11.5877 40.4374 10.0314 40.9194 8.66596C41.4214 7.30048 42.0941 6.14584 42.9375 5.20205C43.8009 4.23818 44.7949 3.50523 45.9194 3.00322C47.064 2.5012 48.2789 2.25019 49.5641 2.25019ZM71.21 23.6963C70.8887 23.6963 70.6277 23.6461 70.4268 23.5457C70.2461 23.4253 70.1056 23.2746 70.0051 23.0939C69.9047 22.9132 69.8345 22.7023 69.7943 22.4614C69.7541 22.2003 69.724 21.9292 69.7039 21.6481C69.2019 22.2706 68.5493 22.7927 67.7461 23.2144C66.9629 23.6361 65.9589 23.8469 64.734 23.8469C63.9508 23.8469 63.1476 23.7365 62.3243 23.5156C61.5211 23.2746 60.7881 22.873 60.1255 22.3108C59.4628 21.7284 58.9206 20.9553 58.4989 19.9915C58.0772 19.0276 57.8664 17.8127 57.8664 16.3468C57.8664 15.2022 58.007 14.1279 58.2881 13.1239C58.5692 12.1198 58.9909 11.2463 59.5532 10.5033C60.1355 9.74028 60.8584 9.13786 61.7219 8.69608C62.5853 8.25431 63.5994 8.03342 64.7641 8.03342C65.7882 8.03342 66.7019 8.22419 67.5051 8.60572C68.3083 8.96717 69.0312 9.56959 69.6738 10.413C69.6738 10.172 69.6839 9.93105 69.7039 9.69008C69.724 9.42903 69.7742 9.1981 69.8545 8.99729C69.9549 8.77641 70.1056 8.60572 70.3064 8.48524C70.5072 8.34467 70.7783 8.27439 71.1196 8.27439C71.4208 8.27439 71.702 8.39488 71.963 8.63584C72.2241 8.87681 72.3747 9.39891 72.4148 10.2021C72.4751 11.2664 72.5152 12.2202 72.5353 13.0636C72.5755 13.907 72.5956 14.7805 72.5956 15.6842C72.5956 16.7886 72.5855 17.8027 72.5654 18.7264C72.5454 19.6501 72.4952 20.634 72.4148 21.6782C72.3747 22.1401 72.3144 22.5116 72.2341 22.7927C72.1739 23.0538 72.0935 23.2546 71.9931 23.3951C71.8927 23.5156 71.7722 23.5959 71.6317 23.6361C71.4911 23.6763 71.3506 23.6963 71.21 23.6963ZM69.5835 16.0456C69.5835 15.0014 69.4228 14.148 69.1015 13.4853C68.8003 12.8227 68.4087 12.3106 67.9268 11.9492C67.4649 11.5676 66.9629 11.3066 66.4207 11.166C65.8786 11.0254 65.3766 10.9552 64.9147 10.9552C64.1918 10.9552 63.5693 11.0857 63.0472 11.3467C62.5452 11.6078 62.1335 11.9692 61.8122 12.4311C61.4909 12.8729 61.25 13.405 61.0893 14.0275C60.9488 14.6299 60.8785 15.2926 60.8785 16.0155C60.8785 17.7826 61.26 19.0878 62.0231 19.9312C62.8062 20.7746 63.8605 21.1963 65.1858 21.1963C65.9689 21.1963 66.6316 21.0658 67.1738 20.8047C67.736 20.5236 68.1878 20.1521 68.5292 19.6902C68.8907 19.2284 69.1517 18.6862 69.3124 18.0637C69.4931 17.4211 69.5835 16.7484 69.5835 16.0456ZM78.7177 21.618C78.6574 20.3529 78.6172 18.8569 78.5972 17.13C78.5972 15.3829 78.5972 13.405 78.5972 11.1961C78.3964 11.2162 78.1554 11.2262 77.8743 11.2262C77.6132 11.2262 77.4024 11.2262 77.2417 11.2262C76.8803 11.2262 76.5489 11.2162 76.2477 11.1961C75.9666 11.176 75.7156 11.1158 75.4947 11.0154C75.2738 10.915 75.1031 10.7744 74.9826 10.5937C74.8622 10.3929 74.8019 10.1218 74.8019 9.78044C74.8019 8.81657 75.5248 8.33463 76.9706 8.33463C77.1915 8.33463 77.4626 8.33463 77.7839 8.33463C78.1052 8.33463 78.3763 8.35471 78.5972 8.39488C78.5972 7.3306 78.6172 6.47717 78.6574 5.83459C78.6976 5.19201 78.7678 4.70003 78.8683 4.35866C78.9887 3.99721 79.1393 3.76628 79.3201 3.66588C79.5209 3.54539 79.7719 3.48515 80.0731 3.48515C80.3944 3.48515 80.6554 3.5956 80.8562 3.81648C81.057 4.03737 81.2076 4.3185 81.3081 4.65987C81.4285 5.00124 81.4988 5.38278 81.5189 5.80447C81.5591 6.22616 81.5791 6.63782 81.5791 7.03943C81.5791 7.32056 81.5691 7.58161 81.549 7.82258C81.549 8.04346 81.549 8.24427 81.549 8.425C81.8302 8.34467 82.1213 8.30451 82.4225 8.30451C82.7237 8.28443 83.0149 8.27439 83.296 8.27439C84.039 8.27439 84.6113 8.39488 85.0129 8.63584C85.4146 8.85673 85.6154 9.22822 85.6154 9.75032C85.6154 10.0716 85.5451 10.3327 85.4045 10.5335C85.2639 10.7142 85.0732 10.8548 84.8322 10.9552C84.6113 11.0556 84.3402 11.1258 84.0189 11.166C83.7177 11.1861 83.3864 11.1961 83.0249 11.1961C82.8241 11.1961 82.5932 11.1961 82.3322 11.1961C82.0711 11.1961 81.8302 11.176 81.6093 11.1359C81.6093 12.2002 81.6093 13.1741 81.6093 14.0576C81.6093 14.9412 81.5992 15.7946 81.5791 16.6179C81.5591 17.4211 81.539 18.2244 81.5189 19.0276C81.4988 19.8308 81.4687 20.6842 81.4285 21.5879C81.4085 22.0698 81.3583 22.4413 81.2779 22.7023C81.2177 22.9634 81.1273 23.1642 81.0068 23.3048C80.8864 23.4453 80.7458 23.5357 80.5851 23.5759C80.4446 23.5959 80.2739 23.606 80.0731 23.606C79.7116 23.606 79.4004 23.4855 79.1393 23.2445C78.8984 22.9835 78.7578 22.4413 78.7177 21.618ZM100.448 23.6963C100.127 23.6963 99.8661 23.6461 99.6653 23.5457C99.4846 23.4253 99.344 23.2746 99.2436 23.0939C99.1432 22.9132 99.0729 22.7023 99.0328 22.4614C98.9926 22.2003 98.9625 21.9292 98.9424 21.6481C98.4404 22.2706 97.7878 22.7927 96.9845 23.2144C96.2014 23.6361 95.1973 23.8469 93.9724 23.8469C93.1893 23.8469 92.3861 23.7365 91.5627 23.5156C90.7595 23.2746 90.0266 22.873 89.3639 22.3108C88.7013 21.7284 88.1591 20.9553 87.7374 19.9915C87.3157 19.0276 87.1048 17.8127 87.1048 16.3468C87.1048 15.2022 87.2454 14.1279 87.5265 13.1239C87.8077 12.1198 88.2294 11.2463 88.7916 10.5033C89.374 9.74028 90.0969 9.13786 90.9603 8.69608C91.8238 8.25431 92.8379 8.03342 94.0025 8.03342C95.0267 8.03342 95.9403 8.22419 96.7436 8.60572C97.5468 8.96717 98.2697 9.56959 98.9123 10.413C98.9123 10.172 98.9223 9.93105 98.9424 9.69008C98.9625 9.42903 99.0127 9.1981 99.093 8.99729C99.1934 8.77641 99.344 8.60572 99.5448 8.48524C99.7456 8.34467 100.017 8.27439 100.358 8.27439C100.659 8.27439 100.94 8.39488 101.201 8.63584C101.463 8.87681 101.613 9.39891 101.653 10.2021C101.714 11.2664 101.754 12.2202 101.774 13.0636C101.814 13.907 101.834 14.7805 101.834 15.6842C101.834 16.7886 101.824 17.8027 101.804 18.7264C101.784 19.6501 101.734 20.634 101.653 21.6782C101.613 22.1401 101.553 22.5116 101.473 22.7927C101.412 23.0538 101.332 23.2546 101.232 23.3951C101.131 23.5156 101.011 23.5959 100.87 23.6361C100.73 23.6763 100.589 23.6963 100.448 23.6963ZM98.8219 16.0456C98.8219 15.0014 98.6613 14.148 98.34 13.4853C98.0388 12.8227 97.6472 12.3106 97.1653 11.9492C96.7034 11.5676 96.2014 11.3066 95.6592 11.166C95.117 11.0254 94.615 10.9552 94.1532 10.9552C93.4303 10.9552 92.8078 11.0857 92.2857 11.3467C91.7836 11.6078 91.372 11.9692 91.0507 12.4311C90.7294 12.8729 90.4884 13.405 90.3278 14.0275C90.1872 14.6299 90.1169 15.2926 90.1169 16.0155C90.1169 17.7826 90.4985 19.0878 91.2615 19.9312C92.0447 20.7746 93.0989 21.1963 94.4242 21.1963C95.2074 21.1963 95.8701 21.0658 96.4122 20.8047C96.9745 20.5236 97.4263 20.1521 97.7677 19.6902C98.1291 19.2284 98.3902 18.6862 98.5508 18.0637C98.7315 17.4211 98.8219 16.7484 98.8219 16.0456ZM105.546 21.8288C105.526 21.1059 105.506 20.2625 105.486 19.2987C105.466 18.3348 105.446 17.2906 105.426 16.1661C105.426 15.0416 105.416 13.8568 105.396 12.6118C105.396 11.3668 105.396 10.0917 105.396 8.78645C105.396 7.36072 105.406 6.1358 105.426 5.11169C105.446 4.08757 105.496 3.24418 105.577 2.58152C105.677 1.91886 105.828 1.43692 106.028 1.13571C106.229 0.814423 106.51 0.653778 106.872 0.653778C107.213 0.653778 107.514 0.764222 107.775 0.985109C108.036 1.206 108.187 1.71805 108.227 2.52128C108.308 3.96709 108.358 5.47314 108.378 7.03943C108.398 8.58564 108.408 10.1118 108.408 11.6178C108.408 12.5215 108.408 13.395 108.408 14.2383C108.408 15.0617 108.398 15.885 108.378 16.7083C108.358 17.5115 108.338 18.3348 108.318 19.1782C108.297 20.0216 108.267 20.8951 108.227 21.7987C108.207 22.2807 108.157 22.6521 108.077 22.9132C108.016 23.1742 107.926 23.3751 107.805 23.5156C107.685 23.6562 107.544 23.7365 107.384 23.7566C107.243 23.7967 107.073 23.8168 106.872 23.8168C106.51 23.8168 106.209 23.6963 105.968 23.4554C105.727 23.1943 105.587 22.6521 105.546 21.8288ZM112.313 21.7084C112.272 20.9654 112.232 20.122 112.192 19.1782C112.172 18.2143 112.162 17.1601 112.162 16.0155C112.162 14.5898 112.172 13.3749 112.192 12.3708C112.212 11.3467 112.262 10.5134 112.343 9.8708C112.443 9.20814 112.594 8.72621 112.795 8.425C112.995 8.1037 113.276 7.94306 113.638 7.94306C113.979 7.94306 114.281 8.06354 114.542 8.30451C114.803 8.54548 114.953 9.06758 114.993 9.8708C115.114 11.9793 115.174 14.0175 115.174 15.9854C115.174 16.9894 115.154 17.9332 115.114 18.8167C115.074 19.6802 115.034 20.634 114.993 21.6782C114.973 22.1602 114.923 22.5317 114.843 22.7927C114.783 23.0538 114.692 23.2546 114.572 23.3951C114.451 23.5357 114.311 23.616 114.15 23.6361C114.009 23.6763 113.839 23.6963 113.638 23.6963C113.276 23.6963 112.975 23.5759 112.734 23.3349C112.493 23.0738 112.353 22.5317 112.313 21.7084ZM113.668 2.49116C114.13 2.49116 114.552 2.67189 114.933 3.03334C115.335 3.39479 115.536 3.82652 115.536 4.32854C115.536 4.81048 115.335 5.23217 114.933 5.59362C114.532 5.93499 114.08 6.10568 113.578 6.10568C113.156 6.10568 112.754 5.93499 112.373 5.59362C112.011 5.23217 111.831 4.7904 111.831 4.2683C111.831 3.78636 112.011 3.37471 112.373 3.03334C112.754 2.67189 113.186 2.49116 113.668 2.49116ZM124.83 27.7024C125.774 27.7024 126.567 27.5117 127.21 27.1301C127.873 26.7687 128.405 26.2365 128.806 25.5337C129.208 24.851 129.489 24.0277 129.65 23.0638C129.83 22.0798 129.921 20.9754 129.921 19.7505C129.74 20.3931 129.479 20.9353 129.138 21.377C128.796 21.8188 128.395 22.1803 127.933 22.4614C127.491 22.7224 126.989 22.9132 126.427 23.0337C125.865 23.1542 125.282 23.2144 124.68 23.2144C123.756 23.2144 122.883 23.0839 122.059 22.8228C121.236 22.5618 120.513 22.1501 119.891 21.5879C119.288 21.0256 118.806 20.3127 118.445 19.4493C118.083 18.5657 117.903 17.5115 117.903 16.2866C117.903 15.1018 118.073 14.0175 118.415 13.0335C118.776 12.0295 119.288 11.166 119.951 10.4431C120.634 9.7202 121.457 9.15794 122.421 8.75633C123.385 8.35471 124.489 8.15391 125.734 8.15391C126.397 8.15391 126.979 8.21415 127.481 8.33463C128.003 8.45512 128.465 8.61576 128.867 8.81657C129.268 9.01738 129.62 9.25834 129.921 9.53947C130.242 9.8206 130.533 10.1218 130.794 10.4431C131.557 11.407 132.11 12.5516 132.451 13.8769C132.792 15.1821 132.963 16.7585 132.963 18.6059C132.963 19.9714 132.843 21.367 132.602 22.7927C132.381 24.2184 131.969 25.5036 131.367 26.6482C130.764 27.8129 129.931 28.7567 128.867 29.4796C127.802 30.2226 126.437 30.5941 124.77 30.5941C124.469 30.5941 124.128 30.574 123.746 30.5338C123.385 30.5137 123.003 30.4736 122.601 30.4133C122.22 30.3531 121.838 30.2627 121.457 30.1422C121.075 30.0418 120.724 29.9013 120.403 29.7205C120.001 29.4997 119.68 29.2888 119.439 29.088C119.198 28.8872 119.077 28.5559 119.077 28.094C119.077 27.7125 119.158 27.3611 119.318 27.0398C119.499 26.7386 119.8 26.588 120.222 26.588C120.423 26.588 120.644 26.6482 120.885 26.7687C121.126 26.8892 121.417 27.0097 121.758 27.1301C122.12 27.2707 122.541 27.4012 123.023 27.5217C123.525 27.6422 124.128 27.7024 124.83 27.7024ZM124.981 20.4734C125.764 20.4734 126.427 20.3328 126.969 20.0517C127.531 19.7505 127.983 19.3589 128.324 18.877C128.686 18.395 128.947 17.8529 129.108 17.2505C129.288 16.648 129.379 16.0456 129.379 15.4432C129.379 14.9412 129.308 14.4392 129.168 13.9371C129.047 13.415 128.836 12.9431 128.535 12.5215C128.234 12.0998 127.822 11.7584 127.3 11.4973C126.778 11.2363 126.126 11.1058 125.342 11.1058C124.017 11.1058 122.943 11.5074 122.119 12.3106C121.316 13.1138 120.915 14.2986 120.915 15.8649C120.915 17.3308 121.276 18.4653 121.999 19.2686C122.722 20.0718 123.716 20.4734 124.981 20.4734ZM142.65 8.30451C143.795 8.30451 144.819 8.48524 145.723 8.84669C146.626 9.18806 147.39 9.68004 148.012 10.3226C148.655 10.9652 149.147 11.7483 149.488 12.6721C149.829 13.5958 150 14.6299 150 15.7745C150 17.0396 149.799 18.1742 149.398 19.1782C149.016 20.1822 148.474 21.0357 147.771 21.7385C147.088 22.4413 146.265 22.9835 145.301 23.365C144.357 23.7465 143.323 23.9373 142.199 23.9373C140.974 23.9373 139.889 23.7265 138.946 23.3048C138.022 22.8831 137.239 22.3108 136.596 21.5879C135.974 20.865 135.502 20.0316 135.18 19.0878C134.859 18.144 134.699 17.15 134.699 16.1059C134.699 14.9613 134.879 13.9171 135.241 12.9733C135.622 12.0094 136.154 11.1861 136.837 10.5033C137.54 9.80052 138.383 9.25834 139.367 8.87681C140.351 8.49528 141.446 8.30451 142.65 8.30451ZM142.319 21.1662C143.142 21.1662 143.845 21.0256 144.428 20.7445C145.01 20.4433 145.482 20.0517 145.843 19.5698C146.225 19.0878 146.496 18.5457 146.657 17.9432C146.837 17.3207 146.928 16.6782 146.928 16.0155C146.928 15.3327 146.837 14.7002 146.657 14.1179C146.496 13.5154 146.235 12.9933 145.873 12.5516C145.532 12.1098 145.08 11.7684 144.518 11.5275C143.976 11.2664 143.323 11.1359 142.56 11.1359C141.777 11.1359 141.094 11.2664 140.512 11.5275C139.93 11.7885 139.438 12.15 139.036 12.6118C138.654 13.0536 138.363 13.5857 138.162 14.2082C137.962 14.8307 137.861 15.5034 137.861 16.2263C137.861 17.6922 138.233 18.887 138.976 19.8107C139.739 20.7144 140.853 21.1662 142.319 21.1662Z" fill="#ECECEC"/>
<path d="M14.5734 0.762767C14.614 0.998564 15.3922 5.50446 15.3922 7.22548C15.3922 9.84972 13.9783 11.7213 11.8881 12.474L12.5441 24.4211C12.5797 25.1085 12.0254 25.6905 11.3236 25.6905H8.06864C7.3719 25.6905 6.81244 25.1135 6.84805 24.4211L7.50413 12.474C5.40876 11.7213 4 9.84475 4 7.22548C4 5.49944 4.77813 0.998564 4.81881 0.762767C4.98156 -0.255825 7.12269 -0.270886 7.25493 0.817938V7.9029C7.32104 8.07349 8.02286 8.06345 8.06864 7.9029C8.13983 6.6334 8.47041 0.918292 8.47548 0.787817C8.64335 -0.255825 10.7489 -0.255825 10.9116 0.787817C10.9218 0.923312 11.2473 6.6334 11.3184 7.9029C11.3642 8.06345 12.0712 8.07349 12.1322 7.9029V0.817938C12.2644 -0.265866 14.4106 -0.255825 14.5734 0.762767ZM20.6356 15.0982L19.8728 24.3859C19.8117 25.0884 20.3763 25.6905 21.0883 25.6905H23.9363C24.6128 25.6905 25.1569 25.1536 25.1569 24.4863V1.20429C25.1569 0.54198 24.6128 5.26564e-05 23.9363 5.26564e-05C19.7405 5.26564e-05 12.6764 8.95658 20.6356 15.0982Z" fill="#ECECEC"/>
</g>
<defs>
<filter id="filter0_d" x="0" y="0" width="154" height="38.5941" filterUnits="userSpaceOnUse" color-interpolation-filters="sRGB">
<feFlood flood-opacity="0" result="BackgroundImageFix"/>
<feColorMatrix in="SourceAlpha" type="matrix" values="0 0 0 0 0 0 0 0 0 0 0 0 0 0 0 0 0 0 127 0" result="hardAlpha"/>
<feOffset dy="4"/>
<feGaussianBlur stdDeviation="2"/>
<feColorMatrix type="matrix" values="0 0 0 0 0 0 0 0 0 0 0 0 0 0 0 0 0 0 0.25 0"/>
<feBlend mode="normal" in2="BackgroundImageFix" result="effect1_dropShadow"/>
<feBlend mode="normal" in="SourceGraphic" in2="effect1_dropShadow" result="shape"/>
</filter>
</defs>
</svg>
